{"asset":{"version":"2.0","generator":"THREE.GLTFExporter"},"scenes":[{"nodes":[0],"name":"AuxScene"}],"scene":0,"nodes":[{"mesh":0}],"bufferViews":[{"buffer":0,"byteOffset":0,"byteLength":179424,"target":34962,"byteStride":12},{"buffer":0,"byteOffset":179424,"byteLength":179424,"target":34962,"byteStride":12}],"buffers":[{"byteLength":358848,"uri":"data:application/octet-stream;base64,"}],"accessors":[{"bufferView":0,"componentType":5126,"count":14952,"max":[44.986778259277344,10.996039390563965,97.88320922851562],"min":[-104.41321563720703,-5.00396203994751,-51.51679229736328],"type":"VEC3"},{"bufferView":1,"componentType":5126,"count":14952,"max":[0.9983142018318176,1,0.9999067783355713],"min":[-0.9952061772346497,0.011362235061824322,-0.9965457916259766],"type":"VEC3"}],"materials":[{"pbrMetallicRoughness":{"baseColorFactor":[0.5019607843137255,0.5019607843137255,0.5019607843137255,1],"metallicFactor":0,"roughnessFactor":1}}],"meshes":[{"primitives":[{"mode":4,"attributes":{"POSITION":0,"NORMAL":1},"material":0}]}]}